<svg width="20" height="20" viewBox="0 0 20 20" fill="none" xmlns="http://www.w3.org/2000/svg">
<g clip-path="url(#clip0_136_30)">
<path d="M20 0H0V20H20V0Z" fill="black"/>
<path d="M9.90432 18.5916V15.6527C9.61133 15.6527 9.31197 15.627 9.01897 15.582L8.56038 18.4823C9.00624 18.5595 9.45846 18.5916 9.90432 18.5916ZM11.2419 18.4887C11.6878 18.418 12.1273 18.3151 12.554 18.1736L11.6559 15.3762C11.3757 15.4662 11.0827 15.537 10.7897 15.582L11.2419 18.4887ZM7.25464 18.1736L8.15273 15.3826C7.87248 15.2926 7.59859 15.1768 7.33108 15.0418L6.00624 17.6592C6.40751 17.8585 6.82789 18.0321 7.25464 18.1736ZM13.796 17.6592C14.1973 17.4534 14.5795 17.2154 14.9425 16.9518L13.2228 14.5788C12.9871 14.7524 12.7324 14.9132 12.4648 15.0418L13.796 17.6592ZM4.85974 16.9453L6.57948 14.5723C6.34382 14.3987 6.11452 14.2058 5.90432 13.9936L3.84063 16.0707C4.1591 16.3858 4.50305 16.6817 4.85974 16.9453ZM15.9553 16.0836L15.9744 16.0643C16.2929 15.7492 16.5859 15.4019 16.847 15.0418L14.4903 13.3119C14.3183 13.5498 14.1209 13.7813 13.9171 13.9871L13.8852 14.0193L14.8788 14.9646L15.9553 16.0836ZM2.96802 15.0354L5.32471 13.3055C5.15273 13.0675 4.9935 12.8103 4.85974 12.5466L2.26101 13.8778C2.46483 14.2829 2.7005 14.6688 2.96802 15.0354ZM17.5476 13.8842C17.7515 13.4855 17.9234 13.0611 18.0636 12.6302L15.2865 11.7299C15.1973 12.0128 15.0827 12.2894 14.9489 12.553L17.5476 13.8842ZM1.74509 12.6302L4.52216 11.7235C4.43299 11.4405 4.36292 11.1511 4.31834 10.8553L1.43299 11.3119C1.50305 11.7556 1.61133 12.1993 1.74509 12.6302ZM18.3757 11.3183C18.4457 10.8746 18.4839 10.418 18.4839 9.96783H15.5667C15.5667 10.2637 15.5413 10.5659 15.4967 10.8617L18.3757 11.3183ZM4.24827 9.9614C4.24827 9.66558 4.27375 9.36333 4.31834 9.06751L1.43299 8.61092C1.36292 9.05465 1.33108 9.51124 1.32471 9.9614H4.24827ZM15.4967 9.07394L18.382 8.61735C18.312 8.17362 18.2101 7.72989 18.0699 7.29902L15.2929 8.19934C15.382 8.48873 15.4521 8.77812 15.4967 9.07394ZM4.52216 8.19934C4.61133 7.91639 4.72598 7.63986 4.85974 7.37619L2.26101 6.045C2.05719 6.44372 1.88522 6.86815 1.74509 7.29902L4.52216 8.19934ZM14.9553 7.38262L17.5604 6.05143C17.3566 5.64629 17.1209 5.26044 16.8534 4.89388L14.4903 6.62378C14.6623 6.86172 14.8215 7.11896 14.9553 7.38262ZM5.32471 6.61735C5.49668 6.37941 5.69413 6.1479 5.90432 5.93568L5.91069 5.92925L3.847 3.85208L3.84063 3.85851C3.52216 4.18005 3.22917 4.52089 2.96802 4.88745L5.32471 6.61735ZM13.9171 5.94854L14.5413 5.31188L15.9744 3.87137L15.968 3.86494C15.6495 3.54983 15.312 3.25401 14.9553 2.99034L13.2355 5.36333C13.4712 5.53696 13.7005 5.72989 13.9043 5.94211L13.9171 5.94854ZM6.58585 5.35047C6.82152 5.17684 7.0763 5.02249 7.34382 4.88745L6.01897 2.27008C5.6177 2.47587 5.23554 2.71381 4.87248 2.97748L6.58585 5.35047ZM12.4839 4.89388L13.8152 2.27651C13.4139 2.07073 12.9999 1.89709 12.5731 1.75561L11.6687 4.54661C11.9425 4.64307 12.2164 4.75883 12.4839 4.89388ZM8.16547 4.54661C8.44573 4.45658 8.73872 4.38584 9.03171 4.34082L8.57948 1.4405C8.13999 1.51124 7.69413 1.61413 7.26738 1.75561L8.16547 4.54661ZM10.796 4.34082L11.2546 1.4405C10.8152 1.36976 10.3629 1.33118 9.91706 1.33118V4.27008C10.2101 4.27008 10.5094 4.29581 10.796 4.34082Z" fill="white"/>
<path d="M9.90449 15.7878V12.836C9.65608 12.836 9.41404 12.8039 9.17201 12.7396L8.40767 15.5884C8.89812 15.7171 9.4013 15.7878 9.90449 15.7878ZM11.4013 15.5884C11.8918 15.4598 12.3567 15.2669 12.7962 15.0097L11.3185 12.4566C11.1083 12.5788 10.879 12.6753 10.6433 12.7396L11.4013 15.5884ZM7.01914 15.0097L8.49685 12.4566C8.28665 12.3344 8.0892 12.1801 7.91086 12.0064L7.88538 11.9807L6.95544 12.9646L5.80895 14.0772L5.82806 14.0965C6.18474 14.4502 6.58602 14.7589 7.01914 15.0097ZM13.9873 14.0965C14.344 13.7363 14.6561 13.3376 14.9045 12.9003L12.3503 11.4212C12.2293 11.6335 12.0765 11.8264 11.8981 12.0064L13.9873 14.0965ZM4.90449 12.8939L7.45863 11.4212C7.33761 11.209 7.24207 10.9839 7.17837 10.746L4.33124 11.5048C4.45863 11.9871 4.65608 12.4566 4.90449 12.8939ZM15.4841 11.5113C15.6115 11.0225 15.6816 10.5209 15.6816 10.0193H12.7325C12.7325 10.2637 12.7007 10.5145 12.637 10.7524L15.4841 11.5113ZM7.0892 10.0129C7.0892 9.7685 7.12105 9.5177 7.18474 9.27975L4.33124 8.52091C4.20385 9.00966 4.13379 9.51127 4.13379 10.0129H7.0892ZM12.6306 9.28618L15.4841 8.52734C15.3567 8.0386 15.1593 7.56914 14.9109 7.13184L12.3567 8.60451C12.4714 8.82316 12.5669 9.04824 12.6306 9.28618ZM7.465 8.60451C7.58602 8.39873 7.73251 8.19937 7.91086 8.02574L7.91723 8.0193L6.8599 6.96464L5.84716 5.91641L5.82806 5.9357C5.47137 6.2894 5.16564 6.69455 4.91086 7.12541L7.465 8.60451ZM11.8981 8.02574L12.9427 6.9775L14.0128 5.96143L13.9873 5.9357C13.6306 5.57557 13.2293 5.27332 12.7962 5.01609L11.3185 7.56914C11.5287 7.69133 11.7198 7.83924 11.8981 8.01287V8.02574ZM8.49685 7.56914C8.70704 7.44696 8.93634 7.35049 9.17201 7.28619L8.42041 4.43731C7.92997 4.56593 7.465 4.75885 7.02551 5.01609L8.49685 7.56914ZM10.637 7.29262L11.4013 4.44374C10.9172 4.31512 10.414 4.24438 9.91086 4.24438V7.19615C10.1529 7.19615 10.4013 7.22831 10.637 7.29262Z" fill="white"/>
</g>
<defs>
<clipPath id="clip0_136_30">
<rect width="20" height="20" fill="white"/>
</clipPath>
</defs>
</svg>
