<svg width="1246" height="464" viewBox="0 0 1246 464" fill="none" xmlns="http://www.w3.org/2000/svg">
<mask id="mask0_70_1522" style="mask-type:alpha" maskUnits="userSpaceOnUse" x="0" y="0" width="327" height="464">
<rect width="327" height="464" fill="#D9D9D9"/>
</mask>
<g mask="url(#mask0_70_1522)">
<path d="M159.764 334.201L157.823 336.568V457.602L159.764 463.273L317.576 241.021L159.764 334.201Z" fill="#3287B2"/>
<path d="M159.764 334.201L157.823 336.568V457.602L159.764 463.273L317.576 241.021L159.764 334.201Z" fill="url(#paint0_linear_70_1522)"/>
<path d="M159.764 334.201L157.823 336.568V457.602L159.764 463.273L317.576 241.021L159.764 334.201Z" fill="url(#paint1_linear_70_1522)"/>
<path d="M159.766 463.271V334.199L2.04816 241.02L159.766 463.271Z" fill="url(#paint2_linear_70_1522)"/>
<path d="M159.766 463.271V334.199L2.04816 241.02L159.766 463.271Z" fill="white" fill-opacity="0.2"/>
<path d="M159.766 463.271V334.199L2.04816 241.02L159.766 463.271Z" fill="url(#paint3_linear_70_1522)"/>
<path d="M159.766 463.271V334.199L2.04816 241.02L159.766 463.271Z" fill="url(#paint4_linear_70_1522)"/>
<mask id="mask1_70_1522" style="mask-type:alpha" maskUnits="userSpaceOnUse" x="2" y="-51" width="316" height="356">
<path fill-rule="evenodd" clip-rule="evenodd" d="M159.761 -50.5793L159.762 -50.5801V-50.5785L317.479 211.112L159.762 304.339V304.34L2.04382 211.112L159.76 -50.577L159.761 -50.5801L159.761 -50.5793Z" fill="url(#paint5_linear_70_1522)"/>
<path fill-rule="evenodd" clip-rule="evenodd" d="M159.761 -50.5793L159.762 -50.5801V-50.5785L317.479 211.112L159.762 304.339V304.34L2.04382 211.112L159.76 -50.577L159.761 -50.5801L159.761 -50.5793Z" fill="url(#paint6_linear_70_1522)"/>
</mask>
<g mask="url(#mask1_70_1522)">
<path d="M135.549 6.39795C135.549 6.39795 204.455 15.6713 261.339 106.248C318.224 196.825 333.679 257.21 333.679 257.21H260.266L135.549 6.39795Z" fill="#F1F2F2"/>
<path d="M51.752 269.114L52.8809 260.982C53.1066 259.626 72.0721 129.963 133.258 10.4641L135.291 6.39795L138.451 8.20511C141.612 10.0123 215.217 56.0948 287.24 259.174L290.853 269.114H51.752Z" fill="white"/>
<path d="M57.6559 262.226C57.6559 262.226 75.9686 134.066 137.237 14.269C137.237 14.269 211.619 58.7972 283.965 262.226H57.6559Z" fill="#003751"/>
<path d="M152.005 27.0601C95.5488 142.837 78.3171 262.225 78.3171 262.225H283.964C231.362 114.626 177.399 50.9828 152.005 27.0601Z" fill="#00172A"/>
<path d="M85.5731 297.293H281.639L276.178 283.891C211.651 125.55 146.13 89.8111 143.4 88.322L140.918 87.0811H83.0912L81.354 90.0593C41.6445 158.31 9.87693 260.81 9.38056 265.029L8.38782 273.964H88.3031C87.3104 281.657 86.814 286.373 86.5658 287.366L85.5731 297.293Z" fill="#F1F2F2"/>
<path d="M-5.58624 296.691L-4.45789 290.185C-4.1758 289.053 15.0062 185.804 76.7835 90.4755L78.7582 87.0811L81.8611 88.4954C84.9641 89.9098 159.435 126.683 232.496 288.77L236.163 296.691H-5.58624Z" fill="white"/>
<path d="M0.00335693 291.102C0.00335693 291.102 18.6537 189.344 80.5389 94.0688C80.5389 94.0688 155.988 129.586 229.176 291.102H0.00335693Z" fill="#003751"/>
<path d="M0.00335693 291.102C0.00335693 291.102 18.6537 189.344 80.5389 94.0688C80.5389 94.0688 155.988 129.586 229.176 291.102H0.00335693Z" fill="url(#paint7_linear_70_1522)"/>
<path d="M96.7604 109.439C40.7375 198.007 23.7609 291.101 23.7609 291.101H229.178C173.438 168.296 116.849 122.739 96.7604 109.439Z" fill="#00172A"/>
<path d="M34.1856 309.892H227.17L221.897 300.647C158.36 192.883 93.7681 168.583 91.1317 167.527L88.7589 166.734H31.8129L30.231 168.847C-8.78759 215.334 -20.915 285.064 -21.4423 287.969L-22.4968 294.044H36.822C35.7674 299.327 35.2402 302.496 35.2402 303.024L34.1856 309.892Z" fill="#F1F2F2"/>
<path d="M-30.5138 309.892L-29.3247 303.061C-28.7302 299.793 -15.0559 221.384 28.9395 169.11L31.0204 166.734L33.6958 167.625C36.6684 168.516 109.499 192.871 181.14 300.684L187.085 309.892H-30.5138Z" fill="white"/>
<path d="M-24.7872 304.166C-24.7872 304.166 -11.3329 224.127 32.3187 172.461C32.3187 172.461 106.168 196.054 177.924 304.166H-24.7872Z" fill="#003751"/>
<path d="M-24.7872 304.166C-24.7872 304.166 -11.3329 224.127 32.3187 172.461C32.3187 172.461 106.168 196.054 177.924 304.166H-24.7872Z" fill="url(#paint8_linear_70_1522)"/>
<path d="M-24.7872 304.166C-24.7872 304.166 -11.3329 224.127 32.3187 172.461C32.3187 172.461 106.168 196.054 177.924 304.166H-24.7872Z" fill="url(#paint9_linear_70_1522)"/>
<path d="M51.5587 186.204C13.2305 234.042 1.55237 304.165 1.55237 304.165H177.922C125.52 226.019 71.9206 195.712 51.5587 186.204Z" fill="#00172A"/>
</g>
<mask id="mask2_70_1522" style="mask-type:alpha" maskUnits="userSpaceOnUse" x="-34" y="-75" width="421" height="287">
<rect x="-34" y="-75" width="420.937" height="286.051" fill="#D9D9D9"/>
</mask>
<g mask="url(#mask2_70_1522)">
<path d="M135.552 6.39697C135.552 6.39697 204.457 15.6703 261.342 106.247C318.226 196.824 333.682 257.209 333.682 257.209H260.269L135.552 6.39697Z" fill="#F1F2F2"/>
<path d="M51.7545 269.113L52.8834 260.981C53.1092 259.625 72.0747 129.962 133.261 10.4631L135.293 6.39697L138.454 8.20414C141.615 10.0113 215.219 56.0939 287.243 259.173L290.855 269.113H51.7545Z" fill="white"/>
<path d="M57.6568 262.226C57.6568 262.226 75.9696 134.066 137.238 14.269C137.238 14.269 211.62 58.7972 283.966 262.226H57.6568Z" fill="#003751"/>
<path d="M57.6568 262.226C57.6568 262.226 75.9696 134.066 137.238 14.269C137.238 14.269 211.62 58.7972 283.966 262.226H57.6568Z" fill="url(#paint10_linear_70_1522)"/>
<path d="M152.008 27.0591C95.5514 142.836 78.3197 262.224 78.3197 262.224H283.966C231.364 114.625 177.402 50.9818 152.008 27.0591Z" fill="#00172A"/>
<path d="M85.5753 297.293H281.641L276.181 283.891C211.653 125.55 146.132 89.8111 143.402 88.322L140.92 87.0811H83.0934L81.3562 90.0593C41.6467 158.31 9.87912 260.81 9.38275 265.029L8.39001 273.964H88.3053C87.3126 281.657 86.8162 286.373 86.568 287.366L85.5753 297.293Z" fill="#F1F2F2"/>
<path d="M-5.58405 296.691L-4.45569 290.185C-4.1736 289.053 15.0084 185.804 76.7857 90.4755L78.7604 87.0811L81.8633 88.4954C84.9663 89.9098 159.438 126.683 232.498 288.77L236.166 296.691H-5.58405Z" fill="white"/>
<path d="M0.0055542 291.102C0.0055542 291.102 18.6559 189.344 80.5411 94.0688C80.5411 94.0688 155.99 129.586 229.179 291.102H0.0055542Z" fill="#003751"/>
<path d="M0.0055542 291.102C0.0055542 291.102 18.6559 189.344 80.5411 94.0688C80.5411 94.0688 155.99 129.586 229.179 291.102H0.0055542Z" fill="url(#paint11_linear_70_1522)"/>
<path d="M0.0055542 291.102C0.0055542 291.102 18.6559 189.344 80.5411 94.0688C80.5411 94.0688 155.99 129.586 229.179 291.102H0.0055542Z" fill="url(#paint12_linear_70_1522)"/>
<path d="M96.7626 109.439C40.7397 198.007 23.7631 291.101 23.7631 291.101H229.18C173.44 168.296 116.852 122.739 96.7626 109.439Z" fill="#00172A"/>
<path d="M34.1878 309.891H227.172L221.899 300.646C158.362 192.882 93.7703 168.582 91.1339 167.526L88.7611 166.733H31.8151L30.2332 168.846C-8.78539 215.333 -20.9128 285.063 -21.4401 287.968L-22.4946 294.043H36.8242C35.7696 299.326 35.2424 302.495 35.2424 303.023L34.1878 309.891Z" fill="#F1F2F2"/>
<path d="M-30.5116 309.891L-29.3225 303.06C-28.728 299.792 -15.0537 221.383 28.9417 169.109L31.0226 166.733L33.698 167.624C36.6706 168.515 109.501 192.87 181.142 300.683L187.088 309.891H-30.5116Z" fill="white"/>
<path d="M-24.785 304.164C-24.785 304.164 -11.3307 224.125 32.3209 172.459C32.3209 172.459 106.17 196.052 177.926 304.164H-24.785Z" fill="#003751"/>
<path d="M-24.785 304.164C-24.785 304.164 -11.3307 224.125 32.3209 172.459C32.3209 172.459 106.17 196.052 177.926 304.164H-24.785Z" fill="url(#paint13_linear_70_1522)"/>
<path d="M-24.785 304.164C-24.785 304.164 -11.3307 224.125 32.3209 172.459C32.3209 172.459 106.17 196.052 177.926 304.164H-24.785Z" fill="url(#paint14_linear_70_1522)"/>
<path d="M51.5609 186.203C13.2327 234.041 1.55457 304.164 1.55457 304.164H177.924C125.522 226.018 71.9228 195.711 51.5609 186.203Z" fill="#00172A"/>
</g>
</g>
<path d="M489.348 275.272C488.66 268.831 485.76 263.817 480.647 260.228C475.583 256.639 468.995 254.845 460.883 254.845C455.18 254.845 450.289 255.705 446.208 257.426C442.128 259.146 439.006 261.481 436.843 264.431C434.68 267.381 433.573 270.749 433.524 274.534C433.524 277.681 434.237 280.409 435.663 282.72C437.138 285.03 439.129 286.997 441.636 288.619C444.143 290.192 446.921 291.52 449.969 292.601C453.017 293.683 456.09 294.592 459.187 295.33L473.346 298.87C479.049 300.197 484.53 301.991 489.791 304.253C495.1 306.514 499.845 309.366 504.023 312.807C508.251 316.249 511.594 320.403 514.053 325.27C516.511 330.137 517.74 335.84 517.74 342.378C517.74 351.228 515.478 359.02 510.955 365.755C506.432 372.441 499.894 377.677 491.339 381.463C482.834 385.199 472.535 387.067 460.441 387.067C448.691 387.067 438.49 385.248 429.837 381.61C421.234 377.972 414.498 372.663 409.631 365.682C404.813 358.7 402.208 350.195 401.814 340.166H428.731C429.124 345.427 430.747 349.802 433.598 353.293C436.449 356.783 440.161 359.389 444.733 361.109C449.355 362.83 454.517 363.69 460.22 363.69C466.168 363.69 471.379 362.806 475.853 361.036C480.376 359.217 483.916 356.709 486.472 353.514C489.029 350.269 490.332 346.484 490.381 342.157C490.332 338.224 489.176 334.98 486.915 332.423C484.653 329.817 481.482 327.654 477.402 325.934C473.371 324.164 468.651 322.591 463.243 321.214L446.061 316.789C433.623 313.594 423.79 308.751 416.563 302.262C409.385 295.723 405.797 287.046 405.797 276.23C405.797 267.332 408.206 259.54 413.024 252.853C417.891 246.167 424.503 240.981 432.861 237.293C441.218 233.557 450.682 231.689 461.252 231.689C471.969 231.689 481.359 233.557 489.422 237.293C497.534 240.981 503.901 246.118 508.522 252.706C513.143 259.245 515.527 266.766 515.675 275.272H489.348Z" fill="#F1F2F2"/>
<path d="M531.806 233.754H562.705L599.651 300.566H601.126L638.071 233.754H668.97L614.031 328.441V384.781H586.746V328.441L531.806 233.754Z" fill="#F1F2F2"/>
<path d="M739.524 384.781H688.346V233.754H740.557C755.551 233.754 768.432 236.777 779.199 242.824C790.014 248.822 798.323 257.45 804.124 268.708C809.925 279.967 812.826 293.437 812.826 309.12C812.826 324.852 809.901 338.372 804.05 349.679C798.249 360.987 789.867 369.664 778.904 375.711C767.99 381.758 754.863 384.781 739.524 384.781ZM715.705 361.109H738.197C748.718 361.109 757.493 359.192 764.524 355.357C771.554 351.474 776.839 345.697 780.379 338.028C783.918 330.309 785.688 320.673 785.688 309.12C785.688 297.567 783.918 287.98 780.379 280.36C776.839 272.691 771.603 266.963 764.671 263.178C757.788 259.343 749.234 257.426 739.008 257.426H715.705V361.109Z" fill="#F1F2F2"/>
<path d="M962.931 233.754V384.781H938.596L867.433 281.909H866.179V384.781H838.82V233.754H863.303L934.392 336.7H935.72V233.754H962.931Z" fill="#F1F2F2"/>
<path d="M992.742 384.781V233.754H1090.97V256.688H1020.1V297.69H1085.88V320.624H1020.1V361.847H1091.56V384.781H992.742Z" fill="#F1F2F2"/>
<path d="M1108.56 233.754H1139.46L1176.4 300.566H1177.88L1214.82 233.754H1245.72L1190.78 328.441V384.781H1163.5V328.441L1108.56 233.754Z" fill="#F1F2F2"/>
<path d="M939.869 169.162V128.188H931.309V135.386C927.259 131.334 922.088 128.586 916.463 127.497C910.838 126.407 905.015 127.026 899.745 129.273C894.474 131.52 889.996 135.293 886.888 140.106C883.779 144.919 882.182 150.552 882.301 156.281C882.421 162.009 884.251 167.571 887.558 172.25C890.864 176.93 895.495 180.513 900.855 182.538C906.215 184.563 912.058 184.939 917.633 183.616C923.208 182.293 928.259 179.332 932.137 175.115C932.872 177.903 934.525 180.363 936.829 182.096C939.134 183.829 941.956 184.735 944.839 184.666C946.294 184.679 947.725 184.296 948.98 183.558V176.36H945.529C942.492 176.36 939.869 174.284 939.869 169.162ZM911.153 176.084C907.154 176.094 903.241 174.918 899.91 172.704C896.58 170.49 893.981 167.337 892.443 163.645C890.905 159.953 890.497 155.888 891.271 151.964C892.045 148.04 893.965 144.434 896.789 141.602C899.614 138.77 903.215 136.84 907.136 136.056C911.058 135.272 915.125 135.669 918.821 137.197C922.517 138.725 925.676 141.315 927.899 144.64C930.122 147.965 931.309 151.874 931.309 155.874C931.313 158.524 930.794 161.149 929.783 163.599C928.772 166.049 927.288 168.276 925.417 170.153C923.545 172.03 921.322 173.519 918.875 174.537C916.427 175.555 913.804 176.08 911.153 176.084Z" fill="#F1F2F2"/>
<path d="M968.762 100.085H959.77V184.669H968.762V100.085Z" fill="#F1F2F2"/>
<path d="M767.328 127.081C761.632 127.077 756.063 128.763 751.326 131.925C746.588 135.086 742.895 139.582 740.713 144.844C738.53 150.105 737.958 155.895 739.067 161.482C740.176 167.069 742.917 172.201 746.943 176.23C750.969 180.259 756.1 183.003 761.686 184.115C767.272 185.228 773.063 184.659 778.325 182.48C783.588 180.301 788.086 176.61 791.251 171.874C794.415 167.139 796.105 161.571 796.105 155.875C796.106 152.095 795.363 148.352 793.917 144.859C792.472 141.366 790.352 138.192 787.68 135.518C785.008 132.844 781.835 130.723 778.343 129.275C774.851 127.827 771.108 127.082 767.328 127.081ZM767.329 176.087C763.331 176.089 759.422 174.906 756.096 172.687C752.771 170.468 750.178 167.312 748.646 163.619C747.114 159.926 746.712 155.862 747.491 151.94C748.269 148.019 750.193 144.416 753.019 141.588C755.845 138.76 759.446 136.834 763.367 136.053C767.288 135.272 771.353 135.672 775.047 137.201C778.741 138.73 781.898 141.321 784.12 144.645C786.341 147.969 787.527 151.877 787.527 155.875C787.528 158.529 787.006 161.156 785.992 163.608C784.977 166.06 783.489 168.287 781.614 170.164C779.738 172.041 777.511 173.53 775.06 174.546C772.609 175.562 769.982 176.086 767.329 176.087Z" fill="#F1F2F2"/>
<path d="M578.349 134.06H544.592V100.085H526.33V184.669H544.592V150.554H578.349V184.669H596.473V100.085H578.349V134.06Z" fill="#F1F2F2"/>
<path d="M852.179 128.588C846.942 126.371 841.161 125.773 835.582 126.871C830.002 127.968 824.878 130.711 820.871 134.746V98.2852H812.293V183.547H820.871V176.255C824.878 180.29 830.002 183.033 835.581 184.13C841.161 185.228 846.942 184.63 852.179 182.413C857.427 180.138 861.896 176.379 865.035 171.597C868.174 166.815 869.846 161.22 869.846 155.5C869.846 149.78 868.174 144.185 865.035 139.404C861.896 134.622 857.427 130.862 852.179 128.588ZM861.269 155.501C861.292 160.921 859.172 166.132 855.372 169.997C853.506 171.895 851.279 173.402 848.823 174.428C846.368 175.454 843.732 175.98 841.07 175.975C837.009 176.03 833.023 174.876 829.619 172.659C826.216 170.443 823.548 167.264 821.956 163.528C820.364 159.792 819.918 155.666 820.677 151.676C821.436 147.686 823.364 144.012 826.216 141.12C829.069 138.229 832.717 136.251 836.696 135.439C840.676 134.626 844.807 135.015 848.564 136.557C852.322 138.098 855.536 140.723 857.799 144.096C860.061 147.469 861.269 151.439 861.269 155.501Z" fill="#F1F2F2"/>
<path d="M459.786 116.579H480.572V184.669H498.487V116.579H519.137V100.085H459.786V116.579Z" fill="#F1F2F2"/>
<path d="M653.279 147.032H686.12C684.906 154.88 680.92 162.033 674.884 167.193C668.849 172.354 661.164 175.181 653.223 175.162C645.282 175.143 637.61 172.279 631.6 167.089C625.589 161.899 621.638 154.727 620.461 146.874C619.094 139.032 620.509 130.959 624.462 124.05C628.415 117.141 634.657 111.83 642.11 109.034C649.532 106.358 657.668 106.43 665.042 109.237C672.416 112.043 678.54 117.399 682.305 124.334L689.799 120.017C684.829 110.963 676.684 104.068 666.933 100.661C657.183 97.2541 646.516 97.5757 636.989 101.564C617.349 109.856 606.788 131.76 612.322 152.726C617.856 173.692 637.764 187.198 658.82 184.272C679.876 181.346 695.532 162.898 695.387 141.184V138.677H653.279L653.279 147.032Z" fill="#F1F2F2"/>
<path d="M404.031 184.669H454.39V168.317H422.445V150.554H449.786V134.2H422.445V116.438H454.39V100.085H404.031V184.669Z" fill="#F1F2F2"/>
<path d="M722.367 100.085H713.374V184.669H722.367V100.085Z" fill="#F1F2F2"/>
<defs>
<linearGradient id="paint0_linear_70_1522" x1="175.173" y1="241.067" x2="325.474" y2="511.74" gradientUnits="userSpaceOnUse">
<stop stop-color="#2A87B2"/>
<stop offset="1" stop-color="#3161AD"/>
</linearGradient>
<linearGradient id="paint1_linear_70_1522" x1="272.61" y1="259.074" x2="157.682" y2="327.103" gradientUnits="userSpaceOnUse">
<stop stop-color="#88ADD8"/>
<stop offset="1" stop-color="#32589D"/>
</linearGradient>
<linearGradient id="paint2_linear_70_1522" x1="95.1641" y1="284.988" x2="95.1641" y2="487.91" gradientUnits="userSpaceOnUse">
<stop stop-color="#2A87B2"/>
<stop offset="1" stop-color="#3161AD"/>
</linearGradient>
<linearGradient id="paint3_linear_70_1522" x1="89.3249" y1="511.266" x2="72.2427" y2="169.278" gradientUnits="userSpaceOnUse">
<stop stop-color="#FFEDD0"/>
<stop offset="1" stop-color="#FF7E91"/>
</linearGradient>
<linearGradient id="paint4_linear_70_1522" x1="89.3249" y1="511.266" x2="72.2427" y2="169.278" gradientUnits="userSpaceOnUse">
<stop stop-color="#88ADD8"/>
<stop offset="1" stop-color="#32589D"/>
</linearGradient>
<linearGradient id="paint5_linear_70_1522" x1="176.597" y1="380.986" x2="154.796" y2="-165.64" gradientUnits="userSpaceOnUse">
<stop stop-color="#88ADD8"/>
<stop offset="1" stop-color="#17479E"/>
</linearGradient>
<linearGradient id="paint6_linear_70_1522" x1="176.597" y1="380.986" x2="154.796" y2="-165.64" gradientUnits="userSpaceOnUse">
<stop stop-color="#FFEDD0"/>
<stop offset="1" stop-color="#FF7E91"/>
</linearGradient>
<linearGradient id="paint7_linear_70_1522" x1="91.2863" y1="94.1678" x2="61.0574" y2="164.647" gradientUnits="userSpaceOnUse">
<stop stop-color="#FFEDD0"/>
<stop offset="1" stop-color="#FF7E91"/>
</linearGradient>
<linearGradient id="paint8_linear_70_1522" x1="87.3872" y1="332.607" x2="82.7108" y2="129.549" gradientUnits="userSpaceOnUse">
<stop stop-color="#88ADD8"/>
<stop offset="1" stop-color="#32589D"/>
</linearGradient>
<linearGradient id="paint9_linear_70_1522" x1="55.9554" y1="172.527" x2="39.5953" y2="223.002" gradientUnits="userSpaceOnUse">
<stop stop-color="#FFEDD0"/>
<stop offset="1" stop-color="#FF7E91"/>
</linearGradient>
<linearGradient id="paint10_linear_70_1522" x1="147.799" y1="14.3936" x2="103.605" y2="95.249" gradientUnits="userSpaceOnUse">
<stop stop-color="#FFEDD0"/>
<stop offset="1" stop-color="#FF7E91"/>
</linearGradient>
<linearGradient id="paint11_linear_70_1522" x1="126.823" y1="333.651" x2="117.569" y2="29.9932" gradientUnits="userSpaceOnUse">
<stop stop-color="#88ADD8"/>
<stop offset="1" stop-color="#32589D"/>
</linearGradient>
<linearGradient id="paint12_linear_70_1522" x1="91.2885" y1="94.1678" x2="61.0596" y2="164.647" gradientUnits="userSpaceOnUse">
<stop stop-color="#FFEDD0"/>
<stop offset="1" stop-color="#FF7E91"/>
</linearGradient>
<linearGradient id="paint13_linear_70_1522" x1="87.3894" y1="332.605" x2="82.713" y2="129.547" gradientUnits="userSpaceOnUse">
<stop stop-color="#88ADD8"/>
<stop offset="1" stop-color="#32589D"/>
</linearGradient>
<linearGradient id="paint14_linear_70_1522" x1="55.9576" y1="172.525" x2="39.5975" y2="223" gradientUnits="userSpaceOnUse">
<stop stop-color="#FFEDD0"/>
<stop offset="1" stop-color="#FF7E91"/>
</linearGradient>
</defs>
</svg>
